<svg width="1760" height="310" viewBox="0 0 1760 310" fill="none" xmlns="http://www.w3.org/2000/svg">
<path d="M130.236 200.901C129.996 182.797 113.658 169.252 99.2002 169.252C90.1156 169.252 82.952 174.365 79.02 183.652L80.7109 185.03C85.2031 181.409 90.5859 179.499 96.2787 179.499C103.462 179.499 110.336 182.671 114.648 187.951C118.72 192.95 120.291 199.367 119.18 206.484C118.76 209.176 117.159 211.993 115.599 214.706C114.158 217.231 112.787 219.61 112.587 221.677C112.407 223.409 113.077 225.777 113.848 228.511C114.728 231.6 115.709 235.117 115.629 238.237C115.118 256.101 100.331 259.294 90.5158 260.515C87.1942 277.002 76.2186 287.645 62.5417 287.645C56.4786 287.645 50.3455 285.6 44.6927 281.958C44.0023 280.727 44.5526 279.798 45.9633 277.993C46.5736 277.2 47.2039 276.397 47.5741 275.489C48.5046 273.235 49.305 270.918 50.1054 268.602C50.8758 266.358 51.6562 264.125 51.4161 262.644C52.5866 262.758 53.7472 262.821 54.8878 262.821C67.9844 262.821 76.5688 255.433 77.5493 243.454L78.2796 243.485C91.0961 243.485 96.829 234.031 96.829 224.671C96.829 215.311 91.1361 205.597 80.5808 205.597C77.7594 205.597 74.7479 206.317 71.6363 207.736C66.6938 210 62.9019 215.979 63.5322 220.518C63.8023 222.48 65.123 225.85 70.8959 226.612L74.8479 227.134L71.7163 224.567C69.9654 223.127 68.0345 220.925 68.7948 218.671C69.6153 216.188 73.3872 214.299 78.98 214.299C79.08 214.299 79.1801 214.299 79.2902 214.299C86.4738 214.998 90.1056 220.529 90.4358 225.35C90.7459 229.743 88.4848 235.096 81.2612 236.932C80.5508 237.12 79.6303 237.141 78.99 237.141L76.2286 237.089C75.018 237.089 74.3076 237.204 73.8174 237.496C73.3271 237.767 73.127 238.184 71.6663 241.325C70.6858 243.464 69.3251 246.407 68.5547 247.398C65.4231 251.489 61.5512 253.576 57.0389 253.576C52.9668 253.576 48.4546 251.854 43.9823 248.619L42.1914 247.315L42.2414 249.6C42.5116 259.878 41.6811 276.563 25.603 286.153C19.2598 289.941 11.0056 290.035 11.0056 290.035L11.1257 292.299C14.1172 292.717 16.9186 292.967 19.59 292.967C28.2643 292.967 35.1778 290.358 40.6306 284.536C47.7342 290.337 56.2485 293.541 64.6127 293.541C76.4587 293.541 87.0241 287.311 93.5974 276.459C94.3878 275.155 95.6784 272.108 96.769 269.52C97.5494 267.683 98.1997 266.087 98.4198 265.753C98.8701 265.294 101.441 264.804 102.982 264.522C104.803 264.177 106.684 263.833 107.905 263.29C119.37 258.157 124.323 249.725 123.963 235.941C123.913 233.906 123.392 231.59 122.882 229.357C122.382 227.113 121.852 224.786 122.032 223.482C122.272 221.687 123.462 219.757 124.823 217.524C127.284 213.496 130.346 208.487 130.246 200.88L130.236 200.901Z" fill="black"/>
<path d="M50.3254 204.543C59.9903 206.619 73.6972 194.817 78.9198 188.525C81.8013 185.061 106.834 125.791 107.884 120.355C118.97 62.7756 60.6406 71.4574 29.9351 52.2678C28.5143 55.0852 28.3042 58.2261 28.8145 61.5026L30.8355 68.4104C35.4579 79.7843 45.563 91.4922 46.2833 97.1583C46.5635 99.3496 41.711 104.713 42.2013 110.077C43.9922 129.757 53.8872 140.337 60.4205 156.877C63.382 142.737 55.8782 133.597 77.8593 145.482C78.5196 157.148 73.6672 169.158 63.8022 175.576C63.1919 168.094 63.322 164.254 60.4105 156.877C57.1888 172.289 56.5985 189.433 48.6345 202.873L50.3154 204.532L50.3254 204.543ZM66.7837 112.435C66.7837 105.694 72.1364 100.237 78.7397 100.237C85.3431 100.237 90.6858 105.694 90.6858 112.435C90.6858 119.176 85.3431 124.633 78.7397 124.633C72.1364 124.633 66.7837 119.176 66.7837 112.435Z" fill="black"/>
<path d="M31.666 35.6974H0V275.969L31.666 249.047V35.6974Z" fill="black"/>
<path d="M350.317 226.268C351.268 206.17 344.644 182.838 337.791 173.478C336.02 171.068 331.498 175.221 331.498 175.565C331.468 177.11 336.16 179.718 333.399 182.348C330.977 184.654 326.945 185.165 326.985 190.257L320.942 186.323C318.101 203.614 317.581 226.403 307.836 241.325C305.514 244.873 295.72 253.273 295.579 254.17C295.339 255.663 298.491 258.125 298.341 259.565C297.6 266.828 254.389 277.576 245.264 274.508L258.811 281.457L240.802 289.179C247.235 293.948 258.361 290.39 265.424 288.261C279.161 284.118 287.555 278.306 299.581 270.835C302.913 268.769 308.486 262.164 310.787 267.517C299.341 273.454 288.066 284.202 276.75 289.597C272.438 291.652 262.493 291.652 260.021 293.103C258.321 294.104 259.061 300.49 257.54 301.503C255.869 302.609 245.934 296.077 245.664 303.704C245.664 303.704 250.497 305.979 260.092 307.325C269.696 308.671 296.94 299.322 312.508 286.132C321.443 278.567 328.216 262.779 336.97 254.536C336.35 262.539 328.896 277.544 320.272 286.643C313.088 294.23 298.671 301.096 295.379 304.967C291.627 309.381 298.251 310.654 302.823 308.014C331.858 291.224 348.726 260.223 350.327 226.257L350.317 226.268ZM313.118 277.795C307.205 281.499 301.402 285.548 295.429 289.231C292.078 291.297 286.525 297.913 284.224 292.55C290.137 288.845 295.94 284.797 301.913 281.113C305.264 279.047 310.817 272.431 313.118 277.795ZM319.602 269.677L314.159 273.193L312.478 270.365L317.921 266.849L319.602 269.677Z" fill="black"/>
<path d="M546.766 91.6695C551.929 96.4591 552.209 104.734 555.681 110.995C557.402 114.073 559.843 116.63 561.614 119.656C564.566 124.81 565.366 130.946 567.527 136.518C573.14 150.772 584.626 153.704 586.236 169.043C586.397 170.734 586.367 172.602 585.426 173.958C584.536 175.263 584.245 176.306 583.355 177.61C581.764 179.937 584.215 185.77 582.375 186.49C571.229 177.443 565.446 181.064 561.514 163.565C561.174 162.042 541.584 150.146 539.213 142.936C538.622 141.172 543.155 136.779 542.484 134.87C539.603 126.908 522.344 108.626 518.592 100.612C514.02 90.8452 512.479 77.2695 508.127 67.0017C516.951 65.833 528.547 91.3356 536.051 85.7426C536.271 85.5652 536.351 84.6365 536.561 84.3234C537.832 85.4191 539.043 86.5773 540.413 87.4539C542.564 88.8521 544.886 89.9478 546.766 91.6904V91.6695ZM580.994 169.356C583.225 164.713 575.111 160.435 572.84 165.057C570.609 169.701 578.723 173.979 580.994 169.356ZM573.89 157.638L571.889 151.273C567.407 150.49 562.815 160.007 564.736 160.779L573.9 157.649L573.89 157.638ZM559.173 148.529C566.136 148.956 562.564 138.563 560.754 137.374C559.073 136.278 558.192 141.172 557.162 142.132C555.791 143.416 553.07 142.925 552.569 143.708C551.869 144.835 557.612 148.435 559.173 148.539V148.529ZM548.037 129.506C551.299 133.242 547.737 136.163 558.753 131.009L557.752 127.826C555.851 128.296 553.27 130.184 551.799 129.433C550.959 129.047 548.217 117.83 543.495 125.614C542.484 127.283 546.857 128.17 548.037 129.516V129.506ZM522.264 90.4382C523.315 104.327 531.989 98.6608 535.451 100.111C538.052 101.217 534.28 109.523 535.901 112.07C537.892 115.242 549.598 116.859 553.74 115.023L541.044 107.009L546.656 103.346L543.675 93.746C535.121 99.026 530.268 91.6278 522.274 90.4486L522.264 90.4382Z" fill="black"/>
<path d="M520.673 63.0887H489.007V277.45L520.673 250.529V63.0887Z" fill="black"/>
<path d="M657.492 63.0887H625.826V277.45L657.492 250.529V63.0887Z" fill="black"/>
<path d="M591.179 63.1409V270.146L595.691 266.327V63.1409H591.179Z" fill="black"/>
<path d="M600.224 63.1409V262.497L604.746 258.678V63.1409H600.224Z" fill="black"/>
<path d="M613.79 63.1409H609.268V254.859L613.79 251.03V63.1409Z" fill="black"/>
<path d="M582.124 63.1409V277.784L586.657 273.955V63.1409H582.124Z" fill="black"/>
<path d="M358.822 181.743C356.64 168.303 372.568 118.633 381.533 107.948C425.275 55.8365 490.888 118.79 482.724 183.516C470.698 278.817 372.558 266.285 358.822 181.743ZM450.728 122.911C448.487 120.595 418.832 111.412 411.988 113.51C371.828 125.812 366.976 222.219 420.943 233.176C430.678 235.148 457.241 208.132 459.422 200.243C463.394 185.916 459.452 131.927 450.718 122.922L450.728 122.911Z" fill="black"/>
<path d="M318.131 196.414C328.706 199.044 328.686 198.897 333.479 197.29C344.304 193.649 341.673 175.524 339.942 171.819C335.8 173.729 331.818 169.764 327.606 167.447C309.036 157.252 290.457 144.605 275.209 127.075C271.587 134.598 276.77 134.139 279.281 136.915C283.263 141.329 286.905 144.908 291.568 150.981C294.929 155.364 293.288 152.713 303.664 165.85C308.396 171.84 322.803 172.122 328.156 179.739L301.743 170.056L314.889 183.944C309.427 185.562 301.392 179.697 296.69 174.553L293.078 182.943C286.175 175.711 275.91 172.08 268.726 165.423C263.723 160.79 255.059 153.245 249.846 151.315C249.376 158.39 256.74 160.748 262.263 166.111C271.687 175.263 281.713 180.699 292.268 186.219C292.268 186.219 303.934 192.407 318.141 196.424L318.131 196.414Z" fill="black"/>
<path d="M249.836 63.0887H281.502V178.237L249.836 151.315V63.0887Z" fill="black"/>
<path d="M361.553 63.0887H329.887V178.237L361.553 151.315V63.0887Z" fill="black"/>
<path d="M761.915 165.193C758.203 149.416 754.131 127.388 744.827 116.306C738.564 110.369 738.524 127.722 733.251 123.245C726.718 116.984 721.615 106.33 715.892 99.287C710.369 93.3809 699.724 81.6209 691.98 75.1409C683.196 68.0452 672.45 62.1287 662.765 56.0244C658.703 53.8122 654.351 49.847 650.479 48.0417C650.139 54.6157 652.88 61.0644 654.981 67.3252C664.806 89.5722 676.492 114.668 663.906 138.292C660.354 147.005 654.521 157.054 654.521 173.76C654.521 197.009 661.585 201.725 666.877 210.323C669.449 214.143 671.3 216.887 673.271 219.892C674.781 222.417 674.561 226.518 671.94 230.452C668.758 235.242 664.276 243.35 660.334 249.767C654.961 258.49 650.279 267.986 657.633 276.605C659.103 277.565 660.644 276.626 661.815 275.447C664.646 272.504 666.707 266.296 670.049 263.311C677.213 256.977 688.468 254.087 695.782 247.461C725.887 224.275 743.426 207.141 748.909 164.014C750.44 158.713 752.34 161.969 753.301 165.005C758.994 194.233 741.755 224.264 723.216 245.489C710.579 258 691.27 264.084 679.414 277.826L679.514 278.066C722.966 275.583 765.107 221.05 763.656 177.35C763.516 173.426 762.716 169.523 761.895 165.183L761.915 165.193ZM697.403 190.487L681.375 173.781L697.403 157.064L713.421 173.781L697.403 190.487ZM675.111 130.341C681.315 124.706 675.342 93.8922 678.913 93.3704C688.038 92.0348 704.967 123.84 713.421 129.652C708.508 135.214 675.652 134.849 675.111 130.341Z" fill="black"/>
<path d="M243.093 86.6819H142.522L146.184 81.9653H243.093V86.6819Z" fill="black"/>
<path d="M243.093 77.2383H149.846L153.518 72.5217H243.093V77.2383Z" fill="black"/>
<path d="M243.093 63.0887V67.8053H157.18L160.842 63.0887H243.093Z" fill="black"/>
<path d="M243.093 96.1149H135.198L138.86 91.3879H243.093V96.1149Z" fill="black"/>
<path d="M186.925 264.449C185.204 264.449 182.072 264.564 179.481 264.397C172.838 263.979 161.082 256.393 156.749 251.374C154.028 248.765 147.645 239.593 146.194 236.129C143.112 227.384 146.754 212.139 144.983 202.529C153.508 195.151 160.761 187.284 169.626 180.772C162.963 174.637 150.406 169.43 146.934 160.257C145.244 155.05 147.345 143.708 147.435 137.144C147.325 130.268 147.034 103.284 147.235 96.1252H135.198C135.559 106.111 136.039 136.101 136.279 146.317C136.979 158.964 134.448 165.047 144.083 175.951C145.614 177.683 151.177 181.21 151.607 181.649C151.447 183.819 136.959 192.991 134.368 199.075C133.828 200.807 133.668 213.882 133.428 216.981C133.137 220.884 133.257 235.701 134.318 238.31C135.008 240.042 138.35 246.177 139.851 248.348C145.434 257.082 156.339 267.558 165.584 272.776C166.384 273.203 171.397 275.75 171.397 275.75C171.817 275.75 233.568 275.77 250.807 275.75V265.377C232.218 266.202 204.153 264.042 186.925 264.449Z" fill="black"/>
<path d="M182.893 230.15C182.893 230.15 181.932 200.358 183.803 197.76L204.964 178.111C208.676 178.56 211.907 185.99 212.327 185.99C213.168 185.99 214.699 182.077 216.47 180.783C219.641 177.245 224.574 173.343 228.125 170.306L240.482 156.355L240.682 153.694C238.351 151.523 235.039 145.012 233.478 143.708C226.895 137.144 218.471 132.365 209.966 128.4L194.158 144.146C188.405 148.059 185.184 151.962 183.733 143.708C184.784 134.755 183.943 105.235 183.993 96.1252H172.968C172.908 104.776 172.787 133.304 172.988 141.986C172.888 143.28 171.517 145.023 171.477 145.45C171.407 146.317 177.08 154.633 178.26 155.489C180.181 157.659 187.785 162.438 189.896 162C193.298 161.144 207.845 145.45 211.437 141.986C219.301 143.28 222.272 148.059 227.305 153.704L214.989 167.28C212.327 169.45 207.665 164.181 201.572 167.708C191.937 173.353 182.052 187.732 171.997 193.44C171.997 209.468 171.467 220.017 171.467 227.353C171.467 236.484 182.142 241.816 182.142 241.816H250.807V230.17H182.893V230.15Z" fill="black"/>
<path d="M987.96 160.341L986.919 158.765L986.639 158.337C985.308 158.525 983.447 158.755 982.137 158.89C977.254 160.383 972.092 160.508 966.929 160.237C962.537 160.07 958.125 159.631 953.962 159.642C948.27 159.391 943.377 159.569 938.515 159.621C936.844 159.642 935.183 159.663 933.492 159.631V173.123C935.163 173.165 936.834 173.207 938.515 173.259C944.358 173.426 950.281 173.635 956.554 174.042C964.458 175.19 972.602 176.317 980.616 176.223C982.567 176.243 984.848 176.118 986.919 175.93C987.399 175.878 987.88 175.826 988.33 175.774L989.27 170.264L987.95 160.33L987.96 160.341ZM948.98 169.148C948.27 169.607 942.917 169.732 941.626 169.576C940.866 169.638 939.155 170.296 939.075 168.47C939.135 167.927 940.456 163.534 941.356 162.814C942.257 162.073 950.531 161.781 950.921 163.075C952.152 164.828 950.191 167.906 948.97 169.148H948.98ZM955.363 170.65C954.073 169.21 956.914 164.838 958.305 163.878C958.635 163.461 963.607 163.117 964.508 163.315C968.78 163.941 967.419 165.746 967.81 170.755C966.069 170.859 955.733 171.016 955.363 170.65ZM982.687 172.205C980.756 172.299 977.054 173.009 975.704 172.946C974.333 172.779 973.342 172.643 972.962 172.059C972.632 171.683 972.502 167.416 972.682 166.967L972.872 166.445C973.102 165.683 973.402 165.099 973.733 164.671C974.843 163.263 980.226 163.263 982.757 163.482C984.188 163.962 985.008 165.652 985.418 167.061C985.829 170.755 986.499 172.028 982.687 172.195V172.205Z" fill="black"/>
<path d="M905.698 73.346V285.631L937.354 258.72V65.5304L905.698 73.346Z" fill="black"/>
<path d="M995.954 70.9878V277.993L1000.48 274.174V70.9878H995.954Z" fill="black"/>
<path d="M1005 70.9878V270.355L1009.53 266.525V70.9878H1005Z" fill="black"/>
<path d="M1018.58 70.9878H1014.04V262.706L1018.58 258.887V70.9878Z" fill="black"/>
<path d="M986.909 70.9878V285.631L991.442 281.812V70.9878H986.909Z" fill="black"/>
<path d="M1354.31 188.066C1351.66 183.777 1351.16 180.95 1350.44 178.184C1346.44 166.059 1350.35 151.461 1350.67 139.033C1351.31 132.25 1346.7 91.2626 1345.85 86.2748C1344.99 81.2557 1336.89 66.9287 1330.24 70.8418C1316.96 78.6366 1299.82 85.2835 1281.02 87.1305C1242.79 89.1653 1206.98 112.435 1195.38 151.524C1192.24 165.099 1189.26 181.106 1192.5 194.421C1195.75 207.736 1196.58 219.245 1228.57 247.023C1234.73 252.376 1232.48 256.884 1233.21 264.438C1233.94 271.993 1239.82 278.139 1254.75 271.409C1269.69 264.668 1284.09 274.299 1295.73 277.993C1319.74 285.621 1331.27 279.548 1338.09 272.807C1342.1 268.038 1345.1 259.524 1340.52 250.174C1336.57 242.087 1325.48 236.765 1325.48 236.765C1325.48 236.765 1330.3 241.127 1329.85 249.61C1329.4 258.094 1322.98 262.508 1313.09 263.833C1291.23 266.776 1268.96 258.699 1254.89 244.508C1242.94 232.445 1236.43 213.934 1241.42 196.852C1246.42 179.77 1253.5 174.052 1264.92 166.518C1275.92 159.256 1290.15 158.327 1290.09 163.127C1290.04 167.29 1281.71 164.828 1270.99 174.146C1266.17 178.33 1260.89 186.021 1258.51 191.259C1258.01 191.854 1251.02 205.92 1257.99 222.219C1260.93 229.117 1285.06 252.136 1297.04 253.555C1306.85 255.172 1312.49 252.939 1316.73 243.068C1320.06 235.482 1316.44 223.878 1309.28 231.047C1305.83 234.501 1309.49 247.294 1301.57 245.969C1288.44 245.071 1293.29 229.398 1308.72 219.308C1317.56 213.642 1340.29 225.402 1345 240.292C1343.65 227.437 1331.66 214.31 1306.77 210.72C1289.42 204.605 1303.13 184.831 1317.29 186.866C1329.5 188.619 1331.88 198.929 1344.28 207.997L1326.4 184.748C1338.65 187.565 1346.51 191.635 1349.35 195.172C1351.56 197.937 1356.95 192.344 1354.32 188.066H1354.31ZM1215.14 156.532C1229.25 120.856 1265.42 111.37 1286.06 113.364C1301.08 114.73 1317.3 124.998 1328.78 115.638C1336.41 110.16 1339.28 128.181 1339.28 128.181C1339.28 128.181 1342.21 155.645 1339.04 159.151C1335.81 159.37 1317.56 140.734 1315.26 138.637C1306.5 132.25 1298.76 128.734 1279.24 127.826C1261.38 127.336 1235.19 140.39 1224.84 156.303C1218.01 166.508 1216.74 175.607 1215.3 186.303C1213.5 181.597 1209.96 170.619 1215.13 156.532H1215.14ZM1293.83 205.69C1295.27 211.221 1304.25 214.216 1304.32 215.353C1304.39 216.459 1296.88 219.736 1292.98 226.278C1290.21 230.932 1287.53 237.037 1290.15 243.475C1289.06 243.558 1272.26 228.762 1270.46 226.09C1246.32 197.405 1285.95 149.52 1317.29 179.802C1299.45 182.765 1288.02 195.767 1293.83 205.69ZM1331.95 179.677C1320.36 176.327 1305.49 170.181 1299.1 159.965C1292.69 149.75 1275.02 152.703 1262.86 159.329C1245.79 168.626 1230.9 190.08 1231.16 213.673C1219.82 198.209 1219.92 187.377 1223.4 176.097C1233.69 142.174 1273.22 126.522 1303.76 139.649C1319.25 145.367 1317.03 152.077 1325.08 160.664C1333.13 169.252 1338.48 166.779 1344.12 175.513C1349.77 184.247 1343.55 183.026 1331.95 179.677Z" fill="black"/>
<path d="M1555.79 172.226C1554.41 166.456 1547.38 142.831 1535.47 123.694C1530.18 115.722 1520.08 99.9443 1512.42 90.9913C1503.76 81.0469 1492.76 72.2817 1482.98 63.433C1478.81 60.1252 1474.59 54.7304 1470.58 51.9652C1469.35 59.8122 1471.54 68.0348 1473.04 75.84C1480.84 104.129 1490.41 136.09 1473.63 162.595C1468.65 172.539 1462.61 182.661 1459.78 194.317C1454.51 224.045 1462.93 238.56 1467.58 249.725C1469.93 254.744 1471.59 258.303 1473.36 262.237C1478.24 271.19 1484 282.376 1495.94 277.367C1507.87 272.358 1468.19 211.388 1500.75 192.741C1512 186.292 1513.1 202.257 1518.19 214.299C1523.28 226.341 1510.25 265.377 1533 268.779C1538.4 269.583 1554.52 270.344 1554.52 270.344C1554.52 270.344 1558.77 184.57 1555.8 172.216L1555.79 172.226ZM1486.88 154.737C1494.37 148.957 1491.79 110.922 1495.81 110.87C1505.96 110.682 1520.4 151.482 1528.83 159.819C1522.8 165.777 1486.93 160.247 1486.88 154.737Z" fill="black"/>
<path d="M1628.66 256.351C1643.26 247.45 1653.01 239.28 1660.14 220.362C1683.16 175.555 1646.33 115.555 1602.91 119.624C1588.11 121.148 1618.73 126.334 1634.63 135.694C1667.5 147.736 1652.32 224.066 1622.85 232.497C1605.13 238.779 1582.25 222.605 1574.09 202.247C1566.76 170.306 1569.55 146.452 1578.1 131.176C1597.99 95.6034 1649.05 106.497 1676.34 169.899C1685.48 176.285 1671.61 139.346 1651.14 122.358C1651.14 122.358 1649.81 121.064 1647.72 119.53C1640.9 113.864 1623.37 101.353 1607.16 98.9217C1607.16 98.9217 1600.6 98.0556 1595.16 99.5582C1571.93 105.955 1566.47 125.854 1561.74 139.346C1558.88 155.186 1552.29 175.158 1559.18 192.313C1564.84 210.824 1574.38 230.546 1586.4 247.523C1598.03 260.744 1614.06 265.252 1628.65 256.351H1628.66Z" fill="black"/>
<path d="M1743.31 224.797C1738 221.238 1742.19 204.282 1744.02 200.233C1744.76 198.637 1746.22 196.696 1747.94 194.671C1746.18 189.59 1744.41 184.477 1742.65 179.395C1739.47 185.426 1735.98 192.23 1734.58 191.353C1734.11 191.061 1731.79 184.205 1729.67 181.085C1720.71 167.697 1720.94 166.32 1714.73 153.423C1713.56 150.981 1708.86 150.647 1708.19 148.998C1706.8 145.586 1684.51 135.037 1691.15 111.141C1693.89 101.259 1714.51 95.52 1717.72 93.4226C1728.33 86.5357 1735.71 84.9705 1748.21 94.3096C1747.95 85.2313 1749.82 76.8418 1742.83 64.0905C1729.31 39.4331 1706.15 49.4505 1702.38 50.1078C1702.24 50.0974 1702.16 50.2748 1702.03 50.3061C1703.98 54.5844 1706.1 53.8331 1706.9 56.4522C1709.1 63.6626 1701.64 60.8035 1699.32 61.5757C1684.56 66.5635 1691.8 67.2731 1690.97 72.3339C1690.79 73.5026 1677.7 86.2852 1676.32 86.9009C1674.36 87.767 1671.53 86.1287 1670.55 86.6713C1667.91 88.247 1661.96 96.4904 1660.9 96.9913C1660.19 97.3044 1657.83 95.6139 1655.44 93.4331C1653.61 99.6522 1662.1 130.143 1676.22 149.363C1679.7 154.101 1682.58 159.037 1686.3 163.461C1686.42 163.597 1686.53 163.743 1686.65 163.878C1686.24 161.311 1686.25 158.828 1687.08 156.47C1687.57 156.918 1688.07 157.357 1688.59 157.784C1696.8 164.703 1706.99 168.428 1713.8 176.911C1715.5 179.019 1723.97 192.177 1724.33 193.93C1724.74 195.83 1721.47 200.118 1717.73 204.334C1718.04 204.804 1718.51 205.044 1718.8 205.524C1719.6 206.859 1719.54 208.497 1720.08 209.948C1724.31 205.628 1729.43 200.369 1730.16 200.797C1730.57 201.026 1734.67 208.299 1732.82 210.751C1731.28 212.776 1726.32 218.661 1721.35 223.743C1720.89 225.976 1720.93 228.522 1719.78 230.223C1717.38 233.948 1712.58 236.056 1708.7 232.8C1707.36 231.663 1706.33 230.066 1705.36 228.48C1704.84 227.583 1704.24 226.654 1703.71 225.767C1704.24 229.628 1699.65 227.29 1697.31 227.134C1692.65 226.79 1686.71 228.626 1685.11 220.727L1702.44 223.68C1701.85 222.626 1701.24 221.666 1700.62 220.623C1699.68 220.362 1698.28 219.694 1696.71 218.87C1693.31 214.299 1689.44 210.532 1684.41 209.165C1681.38 208.341 1675.77 208.518 1672.4 209.238C1670.34 208.706 1668.28 208.216 1666.31 207.819C1664.38 208.946 1662.68 210.324 1661.8 212.671C1661.64 213.151 1661.99 213.757 1661.88 214.247C1663.27 215.478 1664.39 216.897 1664.49 218.661C1663.07 218.87 1662.88 220.383 1662.21 221.353C1662.67 223.033 1663.23 224.546 1663.94 226.184C1663.94 226.174 1663.95 226.174 1663.95 226.164C1664.59 224.922 1665.42 223.816 1666.4 222.908C1670.24 219.35 1676.29 218.911 1680.94 224.859C1698.26 247.221 1707.23 262.831 1733.75 268.216C1737.23 268.925 1746.11 267.172 1747.53 267.976C1747.75 268.07 1748.83 269.353 1749.83 270.49C1755.08 264.71 1758.88 257.207 1759.74 248.077C1761.05 234.303 1756.37 219.496 1751.49 205.315C1747.64 214.675 1744.26 225.464 1743.28 224.807L1743.31 224.797ZM1684.5 91.68C1694.59 81.4018 1707.97 74.6818 1721.33 70.4557C1726.65 68.7235 1731.38 67.2209 1736.52 74.8278C1728.64 77.4887 1721.23 82.7165 1713.38 85.1687C1709.84 86.2539 1704.87 82.8626 1701.37 83.927C1695.54 85.68 1689.99 101.437 1684.5 91.68ZM1707.07 252.031L1692.91 232.174C1696.16 234.605 1704.39 234.115 1705.02 234.449C1705.81 234.845 1716.13 253.43 1707.07 252.031Z" fill="black"/>
<path d="M1424.19 160.341L1423.15 158.765L1422.87 158.337C1421.54 158.525 1419.68 158.755 1418.37 158.89C1413.48 160.383 1408.32 160.508 1403.16 160.237C1398.77 160.07 1394.36 159.631 1390.19 159.642C1384.5 159.391 1379.61 159.569 1374.75 159.621C1373.07 159.642 1371.41 159.663 1369.72 159.631V173.123C1371.39 173.165 1373.06 173.207 1374.75 173.259C1380.59 173.426 1386.51 173.635 1392.78 174.042C1400.69 175.19 1408.83 176.317 1416.85 176.223C1418.8 176.243 1421.08 176.118 1423.15 175.93C1423.63 175.878 1424.11 175.826 1424.56 175.774L1425.5 170.264L1424.18 160.33L1424.19 160.341ZM1385.21 169.148C1384.5 169.607 1379.15 169.732 1377.86 169.576C1377.1 169.638 1375.39 170.296 1375.31 168.47C1375.37 167.927 1376.69 163.534 1377.59 162.814C1378.49 162.073 1386.76 161.781 1387.15 163.075C1388.38 164.828 1386.42 167.906 1385.2 169.148H1385.21ZM1391.59 170.65C1390.3 169.21 1393.14 164.838 1394.54 163.878C1394.87 163.461 1399.84 163.117 1400.74 163.315C1405.01 163.941 1403.65 165.746 1404.04 170.755C1402.3 170.859 1391.96 171.016 1391.59 170.65ZM1418.92 172.205C1416.99 172.299 1413.28 173.009 1411.93 172.946C1410.56 172.779 1409.57 172.643 1409.19 172.059C1408.86 171.683 1408.73 167.416 1408.91 166.967L1409.1 166.445C1409.33 165.683 1409.63 165.099 1409.96 164.671C1411.07 163.263 1416.46 163.263 1418.99 163.482C1420.42 163.962 1421.24 165.652 1421.65 167.061C1422.06 170.755 1422.73 172.028 1418.92 172.195V172.205Z" fill="black"/>
<path d="M1356.91 71.2695V285.631L1388.56 258.72V71.2695H1356.91Z" fill="black"/>
<path d="M1432.18 70.9878V277.993L1436.71 274.174V70.9878H1432.18Z" fill="black"/>
<path d="M1441.23 70.9878V270.355L1445.76 266.525V70.9878H1441.23Z" fill="black"/>
<path d="M1454.81 70.9878H1450.27V262.706L1454.81 258.887V70.9878Z" fill="black"/>
<path d="M1423.14 70.9878V285.631L1427.66 281.812V70.9878H1423.14Z" fill="black"/>
<path d="M1145.04 93.4852H1044.47L1048.13 88.7687H1145.04V93.4852Z" fill="black"/>
<path d="M1145.04 84.0522H1051.79L1055.46 79.3357H1145.04V84.0522Z" fill="black"/>
<path d="M1145.04 69.9026V74.6191H1059.13L1062.79 69.9026H1145.04Z" fill="black"/>
<path d="M1145.04 102.918H1037.14L1040.81 98.2017H1145.04V102.918Z" fill="black"/>
<path d="M1088.87 271.262C1087.15 271.262 1084.02 271.377 1081.43 271.21C1074.78 270.793 1063.03 263.207 1058.7 258.188C1055.97 255.579 1049.59 246.407 1048.14 242.942C1045.06 234.198 1048.7 218.953 1046.93 209.342C1055.45 201.965 1062.71 194.097 1071.57 187.586C1064.91 181.45 1052.35 176.243 1048.88 167.071C1047.19 161.864 1049.29 150.522 1049.38 143.958C1049.27 137.082 1048.98 110.097 1049.18 102.939H1037.14C1037.5 112.925 1037.99 142.915 1038.23 153.13C1038.93 165.777 1036.39 171.861 1046.03 182.765C1047.56 184.497 1053.12 188.024 1053.55 188.462C1053.39 190.633 1038.91 199.805 1036.31 205.889C1035.77 207.621 1035.61 220.695 1035.37 223.795C1035.08 227.697 1035.2 242.515 1036.26 245.123C1036.95 246.855 1040.3 252.991 1041.8 255.162C1047.38 263.895 1058.29 274.372 1067.53 279.589C1068.33 280.017 1073.34 282.563 1073.34 282.563C1073.76 282.563 1135.51 282.584 1152.75 282.563V272.191C1134.16 273.015 1106.1 270.855 1088.87 271.262Z" fill="black"/>
<path d="M1084.84 236.953C1084.84 236.953 1083.88 207.162 1085.75 204.563L1106.91 184.915C1110.62 185.364 1113.85 192.793 1114.27 192.793C1115.11 192.793 1116.64 188.88 1118.42 187.586C1121.59 184.049 1126.52 180.146 1130.07 177.11L1142.43 163.158L1142.63 160.497C1140.3 158.327 1136.99 151.816 1135.42 150.511C1128.84 143.948 1120.42 139.169 1111.91 135.204L1096.1 150.95C1090.35 154.863 1087.13 158.765 1085.68 150.511C1086.73 141.558 1085.89 112.038 1085.94 102.929H1074.91C1074.85 111.579 1074.73 140.108 1074.93 148.79C1074.83 150.083 1073.46 151.826 1073.42 152.254C1073.35 153.12 1079.03 161.437 1080.21 162.292C1082.13 164.463 1089.73 169.242 1091.84 168.803C1095.24 167.948 1109.79 152.254 1113.38 148.79C1121.25 150.083 1124.22 154.863 1129.25 160.508L1116.93 174.083C1114.27 176.254 1109.61 170.984 1103.52 174.511C1093.88 180.157 1084 194.536 1073.94 200.243C1073.94 216.271 1073.41 226.821 1073.41 234.157C1073.41 243.287 1084.09 248.619 1084.09 248.619H1152.75V236.974H1084.84V236.953Z" fill="black"/>
<path d="M977.374 90.2504C977.374 89.6557 977.224 89.0713 976.924 88.5078C975.093 85.2 967.279 82.8939 954.683 79.3983C947.719 77.4678 937.394 74.6087 935.413 72.6365C935.453 72.6052 935.513 72.5739 935.563 72.5322L936.083 72.0104C938.795 67.9304 964.698 70.4765 968.04 69.4122C971.381 68.3478 950.131 57.12 923.447 63.9548C912.642 66.72 903.297 72.48 903.297 72.48C906.308 61.1791 914.382 61.9513 920.636 55.6696C925.698 51.9652 943.257 42.4487 942.016 41.6452L941.306 41.3843C925.428 39.0783 913.052 46.4765 903.357 58.8104C902.757 59.5722 898.174 68.5252 895.363 67.607C892.992 66.5635 893.062 63.7148 894.653 57.7878C896.293 51.6313 899.405 48.0313 900.926 46.0696L905.828 40.9357C913.582 34.393 911.071 32.4835 906.459 34.7165C904.377 35.7183 897.164 40.5704 892.621 46.2887C888.86 51.0261 882.887 57.6209 880.685 61.9304C880.916 60.9391 881.186 59.7913 881.516 58.4765C885.178 46.3304 893.412 39.5061 899.875 32.9009C904.668 27.9861 912.141 24.9287 911.211 21.9548C909.8 17.4678 892.782 27.2974 879.715 43.753C875.953 48.4904 868.93 60.6365 867.009 62.9739C868.409 47.447 874.152 42.6887 879.505 35.7287C887.319 25.5652 891.891 18.24 889.47 15.8296C883.437 9.84 865.448 35.7078 859.685 45.2035C854.912 53.0609 851.981 60.7304 850.41 62.567C851.631 59.6243 856.793 43.127 860.485 36.2922C864.907 28.1843 864.988 26.1496 863.517 24.8557C861.796 23.3322 859.555 25.2522 858.474 26.1913C852.631 30.4696 848.259 41.5617 844.027 52.2991C840.305 61.7322 836.113 72.3652 831.921 74.3687C824.627 74.8278 824.667 65.0296 827.298 59.8435C832.301 49.9722 843.867 41.3322 843.867 41.3322C838.234 40.6748 825.818 49.3252 819.124 60.4278C815.042 67.1896 809.92 76.0383 808.819 74.8278C807.358 73.513 806.308 72.9809 806.238 68.9426C806.198 62.2748 808.589 54.0417 812.581 47.3217C815.743 40.9044 817.343 39.1096 817.333 39.0783C821.225 34.4243 823.867 36.1774 822.326 40.9774C821.245 44.3583 819.104 48.3861 820.645 48.24C820.645 48.24 824.447 45.913 827.999 39.4017C829.51 36.647 833.051 30.0939 834.462 26.8591C839.645 14.9217 857.104 5.40522 858.914 0.740873C859.845 -1.64869 848.619 3.24522 835.162 10.8522C829.66 13.9617 819.344 21.0783 810.34 31.993C802.456 41.4261 792.821 53.2278 791.21 68.9531C790.62 87.7565 798.084 95.9165 803.296 99.8922C803.296 99.8922 810.41 103.137 816.473 101.176L816.943 101.04C819.184 100.007 816.183 96.48 814.592 94.8626C810.58 90.8035 810.4 86.5565 817.964 84.7096C824.957 82.9983 827.599 85.9409 833.902 86.5774C840.205 87.2139 844.077 78.9287 850.73 82.2678C857.384 85.607 854.732 97.0957 853.492 105.704C852.381 113.395 850.39 114.49 850.88 117.777C851.111 119.374 851.401 121.357 851.171 125.134C849.98 138.845 842.736 153.443 836.343 166.33L833.171 172.748L835.383 173.363C841.045 174.897 848.899 163.482 849.78 161.593C851.1 159.506 852.781 154.393 854.732 148.477C855.943 144.793 857.614 139.743 858.804 136.873C859.865 142.779 859.525 159.016 857.834 178.237C857.904 179.478 857.704 180.616 857.494 181.805C856.923 184.967 856.293 188.546 861.146 193.555L863.187 195.652C861.906 199.231 860.425 202.612 858.754 205.753C856.443 210.083 853.642 214.216 850.67 218.588C840.915 232.957 830.13 256.831 839.655 281.019L841.486 285.652L848.209 266.097L848.129 265.607C842.146 248.692 851.931 229.889 859.545 219.005C864.017 212.609 870.7 202.967 873.652 195.308C884.517 167.176 881.636 132.929 874.933 103.002C881.396 107.009 891.701 119.958 891.701 119.958C891.701 119.958 885.428 98.4522 876.043 90.5635C873.452 88.3826 870.971 86.2957 869.42 84.7722C873.952 85.68 886.388 94.7687 891.941 100.101C897.064 104.317 898.615 93.8087 898.815 92.1913C899.595 92.5357 900.866 93.2974 901.846 93.8922C905.828 96.3026 920.836 97.2313 920.836 97.2313L917.364 94.7791C912.982 91.68 914.342 88.32 914.192 87.2765C915.243 85.3252 918.825 84.2087 926.239 85.0017L926.609 85.0435L926.969 84.9287C927.539 84.7513 928.179 84.647 929.34 84.5739C936.764 82.8 977.675 90.887 977.675 90.887L977.404 90.2609L977.374 90.2504ZM865.848 137.802L864.027 124.915L861.976 95.9165C862.386 96.1148 862.786 96.313 863.197 96.5113C875.773 137.791 873.602 161.979 866.488 183.496C870.5 171.35 866.728 156.021 865.848 137.802Z" fill="black"/>
</svg>
