<?xml version="1.0" encoding="UTF-8"?><svg id="Layer_1" xmlns="http://www.w3.org/2000/svg" viewBox="0 0 1236.33 202.45"><path d="M810.71,11.27c-.92,3.54-1.54,7.23-1.69,12.15-4.15-2-9.23-2.92-14.76-2.92-15.38,0-24.76,7.23-29.68,24.91,14.45,0,42.6,8.92,51.67,16.15v-.15c.46-1.38,5.84-9.69,5.84-17.38s-.61-10.92-.61-16.92c0-5.38.77-9.53,1.54-13.08l-12.3-2.77ZM809.79,45.72c-8.15-4.16-19.68-7.23-29.37-8.61,3.54-4.61,7.38-6.15,13.38-6.15,11.38,0,16.3,4.92,16.3,12,0,.92-.15,1.84-.31,2.77Z"/><path d="M863.3,65.41c-21.68,0-34.76,8-34.76,20.92,0,3.69.31,6.15,1.54,9.53l13.84-2.62c-.46-1.84-.61-3.23-.61-4.92,0-4.16,4.61-9.38,20.14-9.38s21.53,6.61,21.53,15.07c0,9.53-3.08,17.68-3.08,25.37,0,6,2,10.92,2,17.38,0,3.38-2.77,5.54-8.77,5.54h-24.45c-2.92,0-4.31-1.23-4.31-3.08,0-1.54.31-3.38.31-5.54,0-1.39-.15-2.62-.46-3.69h.92c9.84,0,15.84-7.23,15.69-15.38-.15-7.53-4.61-15.07-16.3-15.07-10,0-15.99,6.15-15.99,15.53,0,5.84,1.85,11.38,1.85,15.69,0,4.77-.61,7.38-.61,11.38,0,9.54,6.15,13.99,20.76,13.99h22.91c15.07,0,23.38-5.99,23.38-19.37,0-6.15-2.15-11.84-2.15-17.07,0-7.53,3.38-17.99,3.38-25.68,0-18.15-11.38-28.61-36.75-28.61ZM841,115.08v-.15c-.15-3.54,2.15-5.54,5.54-5.54s5.84,2,5.84,5.54c0,4.15-2.61,5.53-5.84,5.53s-5.38-1.38-5.54-5.38Z"/><path d="M1166.82,32.96c0-15.38-11.69-23.53-27.07-23.53s-23.99,7.23-28.91,24.91c14.45,0,41.06,8.92,50.13,16.15v-.15c.46-1.38,5.84-9.69,5.84-17.38ZM1154.52,34.5c-7.84-4-18.45-7.08-27.83-8.31,3.38-4.77,7.23-6.3,12.61-6.3,10.61,0,15.53,4.92,15.53,12,0,.92-.15,1.84-.31,2.61Z"/><path d="M1144.84,142.61c0-8.92-2.31-12.3-2.31-19.84,0-3.38,1.38-8.46,1.23-15.07-.31-14.15-13.07-23.38-33.06-23.38-4.61,0-8.77.16-12.77.77-.15-.77-.15-1.39-.15-2.31,0-4.31,2.62-8.15,7.69-8.15,11.23,0,19.99,11.38,35.22,11.38,10.76,0,17.23-6.3,17.23-17.07,0-11.99-8.15-16.3-18.76-16.46-1.85,0-2.77,0-3.69.15v11.69c1.23-.15,2.46-.15,4.46-.15,2.46,0,4.61,1.54,4.61,4.31,0,2.92-1.69,4.15-4.46,4.15-10.3-.16-19.22-11.99-34.6-11.99-13.38,0-22.14,8.92-22.14,22.14,0,5.69.92,11.53,2.92,17.22,9.23-2.77,16.76-3.07,24.3-2.92,11.53.31,18.45,4.61,18.45,12.15,0,5.07-.77,9.23-.77,12.76,0,1.84.31,3.69.77,5.23h-.77c-9.84,0-15.84,7.23-15.68,15.38.15,7.54,4.61,15.07,16.3,15.07,10,0,15.99-6.92,15.99-15.07ZM1123,142.3c0-4.15,2.62-5.54,5.84-5.54s5.38,1.39,5.54,5.23v.31c.15,3.54-2.15,5.54-5.54,5.54s-5.84-2-5.84-5.54Z"/><path d="M1032.89,65.41c-21.68,0-34.76,8-34.76,21.84,0,3.54.46,6.77,1.85,11.07l13.84-2.31c-.62-2.77-.92-4.61-.92-7.23,0-4.76,4.61-9.84,20.15-9.84s21.53,6.61,21.53,15.07c0,9.53-2.92,15.84-2.92,25.07,0,8.15,1.85,13.69,1.85,19.38,0,3.54-.77,4.92-3.69,5.23-3.54-19.38-13.53-42.6-32.6-42.6-10.46.15-16.61,5.23-16.61,16,0,11.68,7.54,16.15,15.07,16.3,6,.16,11.38-2.61,13.84-8,4.77,8.31,8,21.68,8,31.07,3.54.77,6.76,1.23,12.92,1.23,12.61,0,17.84-6,17.84-15.68,0-7.84-1.85-15.69-1.85-22.92,0-11.07,3.23-14.92,3.23-25.07,0-18.15-11.38-28.61-36.75-28.61ZM1016.13,123.08c-3.38,0-5.38-2.62-5.38-5.69,0-3.38,1.85-5.54,5.38-5.54,3.84,0,5.38,2.15,5.38,5.54,0,3.07-1.54,5.69-5.38,5.69Z"/><path d="M199.35,113.08v-43.98h-14.15v44.91c0,13.69-6.15,19.22-6,27.84.15,8.77,6,15.69,16.76,15.69,12.61,0,16.92-7.53,17.07-15.69.15-8.76-5.69-15.99-16.46-15.99,1.54-3.38,2.77-7.38,2.77-12.77ZM202.12,141.53c0,3.54-2.92,5.69-6.15,5.69s-6-2.15-5.84-5.69v-1.39c.46-3.07,2.92-4.3,5.84-4.3,3.23,0,6.15,1.38,6.15,5.69Z"/><path d="M983.85,70.33l-14.15-2.77c-2.15,7.23-2.92,12.61-2.92,26.6v19.07c0,12.15,2,16.76,2,21.68s-3.08,7.23-9.07,7.23h-17.38c-10.77,0-15.84-3.38-15.84-11.38,0-7.54,3.38-15.07,21.68-16.3l.15-11.07c-3.38-.15-6.92-.92-10.77-2.62-6.77-2.92-9.84-6.61-9.84-13.69,0-2.15.61-4.46,1.84-6.15-.92,8,5.08,13.38,12.61,13.38,6.76,0,13.22-4.15,13.22-14.3,0-8.77-6.15-14-16.92-14.15-13.23,0-22.61,9.84-22.61,21.68,0,9.53,4.3,16.61,12.61,20.76-11.69,4.76-15.23,14-15.23,22.91,0,16.3,10.3,24.91,28.14,24.91h18.61c15.07,0,23.68-6.3,23.68-21.22,0-4.61-2.15-10-2.15-21.38v-19.68c0-9.84.92-16.61,2.31-23.53ZM941.87,75.25c3.08,0,4.77,2,4.77,4.77,0,2.62-1.69,4.92-4.77,4.92-3.38,0-4.61-2.31-4.61-4.92,0-2.77,1.39-4.77,4.61-4.77Z"/><path d="M968.01,181.82c0,3.69-.77,5.08-3.69,5.08h-2.15l.15-10c.15-7.69-4.46-12.46-12.3-12.46s-12.76,5.08-12.76,11.38,5.54,10.3,11.07,10.3c.92,0,2.15,0,3.23-.46l-.31,12h14.3c12.46,0,14.46-2.15,14.46-14.92v-16.92h-12v16ZM949.55,178.74c-2.15,0-3.23-1.53-3.23-3.38s1.08-3.23,3.38-3.23c2.15,0,3.23,1.39,3.23,3.23s-1.08,3.38-3.38,3.38Z"/><path d="M976.46,50.49h14.46c0-14.46.77-22.76,2.46-31.06l-14.45-2.16c-1.85,7.54-2.46,14.61-2.46,33.22Z"/><path d="M1228.79,81.4c0-9.38-6-15.53-15.99-15.53-11.69,0-16.15,7.54-16.3,15.07-.15,8.15,5.84,15.38,15.69,15.38h.92c-.77,2.61-1.23,6.15-1.23,10.3l-.15,10.92c0,11.23,1.84,15.23,1.84,20.61,0,3.84-.92,5.23-4.3,5.38-4.92-20.61-14.3-34.45-28.91-46.13-3.84-3.08-8.46-6.31-13.38-8.77l-7.38,11.84s4.92,2.31,12.46,8.46c11.84,9.69,21.22,24.45,26.14,48.13l.16-.15v.15c5.69.61,8.61.61,12.61.61,12.15,0,17.22-6,17.22-15.68,0-7.84-1.85-14.15-1.85-24.45v-11.23c0-10.46,2.46-14.45,2.46-24.91ZM1212.8,86.78c-3.23,0-5.84-1.39-5.84-5.54,0-3.54,2.61-5.54,5.84-5.54s5.69,2,5.54,5.54c.15,4-2.15,5.54-5.54,5.54Z"/><path d="M131.85,65.41c-17.07,0-30.14,8-30.14,23.53,0,3.54.46,6.77,1.85,11.07l13.99-2c-.77-2.77-1.08-4.92-1.08-7.54,0-6.46,4-11.53,15.53-11.53s16.92,6.61,16.92,16.15c0,13.99-2.92,21.68-2.92,36.76v23.99h14.76v-25.68c0-14.3,3.23-22.76,3.23-35.06,0-19.23-11.38-29.68-32.14-29.68Z"/><path d="M70.65,15.43c-10.15,0-14.3,6.46-14.3,13.22,0,8,5.84,14.76,15.53,12.46-2.46,3.38-6.15,5.85-9.84,7.38l1.07,6.3c6.15,1.23,10.46,1.85,16.76,1.85,16.92,0,25.99-10.61,25.99-24.15,0-6.61-1.54-12-6.15-17.38l-10,5.38c2,2,4.46,5.23,4.46,12.15,0,8-6.92,13.84-13.99,13.84h-1.23c3.38-4.46,6.15-10.3,6.15-16.46-.15-8.46-5.69-14.61-14.46-14.61ZM70.65,33.57c-2.61,0-4.92-1.23-4.92-4.61,0-3.08,2.31-4.77,4.92-4.77,2.77,0,4.77,1.69,4.77,4.77,0,3.23-2,4.61-4.77,4.61Z"/><path d="M6.07,95.39c0,5.54.31,9.53,1.38,17.38h8.77v6.92c0,9.07-4.77,14.92-4.61,22.91.15,8.15,6,15.07,15.99,15.07,11.69,0,16.15-7.53,16.3-15.07.15-8.15-5.84-15.22-15.53-15.38,1.23-2.46,2-5.23,2-8.46v-6h7.54v-12.46h-16.92c-.15-1.54-.15-3.08-.15-4.61,0-10,8.61-16.76,25.99-16.76s26.76,6.61,26.76,19.22c0,11.84-2.46,20.76-2.46,36.76v20.91h14.77v-22.61c0-16.15,2.77-25.84,2.77-35.06,0-21.99-16.45-32.76-41.98-32.76-23.38,0-40.6,11.69-40.6,29.99ZM22.21,140.76v-.46c.62-2.46,2.62-3.54,5.38-3.54,3.23,0,5.84,1.39,5.84,5.54,0,3.54-2.61,5.54-5.84,5.54s-5.69-2-5.53-5.54c0-.62,0-1.08.15-1.54Z"/><path d="M256.39,141.53c0-2.77-.77-5.08-1.69-7.08,8.15.31,21.84,5.54,29.53,21.38h11.69v-61.98c0-9.84.92-16.61,2.31-23.53l-14.15-2.77c-2.15,7.23-2.92,12.61-2.92,26.6v36.91c-8.77-7.07-19.38-10.15-29.53-10.3-.31-2.31-.31-5.08-.31-8.61,0-14.61,4.3-21.07,4.15-29.99-.15-8.77-6.61-16.3-17.38-16.3-12.61,0-17.53,8.15-17.69,16.3-.15,8.76,6.3,16.61,17.07,16.61h1.54c-1.08,3.54-1.85,8-1.85,13.38,0,4.61.15,7.69.46,10.61-8.15,2.77-13.69,8.92-13.69,18.46,0,10.15,5.84,16.61,16.15,16.61,11.07,0,16.3-6.61,16.3-16.3ZM239.79,146.3c-2.31,0-3.38-1.69-3.38-4.61s1.39-5.38,4.46-6.92c1.08,2.15,2.15,4.3,2.15,6.92,0,2.77-1.08,4.61-3.23,4.61ZM243.79,83.86c-.46,3.07-2.77,4.3-5.69,4.3-3.23,0-6-1.38-6-5.69,0-3.54,2.77-5.69,6-5.69s5.84,2.15,5.69,5.69v1.39Z"/><path d="M349.11,65.41c-21.68,0-34.76,8-34.76,20.92,0,3.69.31,6.15,1.54,9.53l13.84-2.62c-.46-1.84-.61-3.23-.61-4.92,0-4.16,4.61-9.38,20.14-9.38s21.53,6.61,21.53,15.07c0,9.53-3.08,17.68-3.08,25.37,0,6,2,10.92,2,17.38,0,3.38-2.77,5.54-8.77,5.54h-24.45c-2.92,0-4.3-1.23-4.3-3.08,0-1.54.31-3.38.31-5.54,0-1.39-.15-2.62-.46-3.69h.92c9.84,0,15.84-7.23,15.69-15.38-.15-7.53-4.61-15.07-16.3-15.07-10,0-15.99,6.15-15.99,15.53,0,5.84,1.84,11.38,1.84,15.69,0,4.77-.61,7.38-.61,11.38,0,9.54,6.15,13.99,20.76,13.99h22.91c15.07,0,23.38-5.99,23.38-19.37,0-6.15-2.15-11.84-2.15-17.07,0-7.53,3.38-17.99,3.38-25.68,0-18.15-11.38-28.61-36.75-28.61ZM326.81,115.08v-.15c-.15-3.54,2.15-5.54,5.54-5.54s5.84,2,5.84,5.54c0,4.15-2.62,5.53-5.84,5.53s-5.38-1.38-5.54-5.38Z"/><path d="M447.37,143.53c-4.92-20.61-14.3-34.45-28.91-46.13-3.84-3.08-8.46-6.31-13.38-8.77l-7.38,11.84s4.92,2.31,12.46,8.46c11.84,9.69,21.22,24.45,26.14,48.13l.15-.15v.15c5.69.61,8.61.61,12.61.61,12.15,0,17.22-6,17.22-15.68,0-7.84-1.85-14.15-1.85-24.45v-11.23c0-10.46,2.46-14.45,2.46-24.91,0-9.38-6-15.53-15.99-15.53-11.69,0-16.15,7.54-16.3,15.07-.15,8.15,5.84,15.38,15.69,15.38h.92c-.77,2.61-1.23,6.15-1.23,10.3l-.15,10.92c0,11.23,1.85,15.23,1.85,20.61,0,3.84-.92,5.23-4.31,5.38ZM450.91,86.78c-3.23,0-5.84-1.39-5.84-5.54,0-3.54,2.62-5.54,5.84-5.54s5.69,2,5.53,5.54c.15,4-2.15,5.54-5.53,5.54Z"/><path d="M279.92,7.89c-.77,3.08-1.38,8-1.54,12.61-14.46.62-23.22,7.84-27.99,24.91,14.46,0,42.6,8.92,51.67,16.15v-.15c.46-1.38,5.84-9.69,5.84-17.38s-.62-10.92-.62-16.92c0-5.38.77-9.53,1.54-13.08l-12.3-2.77c-.92,3.54-1.54,7.23-1.69,12.15-1.23-.62-2.62-1.23-4.15-1.54.16-4.76.92-8.3,1.54-11.53l-12.3-2.46ZM295.91,42.96c0,.92-.15,1.84-.31,2.77-8.15-4.16-19.68-7.23-29.37-8.61,3.54-4.61,7.38-6.15,13.38-6.15,11.38,0,16.3,4.92,16.3,12Z"/><path d="M623.88,12.04c-10.15,0-14.3,6.46-14.3,13.22,0,8,5.84,14.76,15.53,12.46-2.46,3.38-6.15,5.85-9.84,7.38l1.08,6.31c6.15,1.23,10.46,1.84,16.76,1.84,16.92,0,25.99-10.61,25.99-24.15,0-6.61-1.54-11.99-6.15-17.38l-10,5.39c2,2,4.46,5.23,4.46,12.15,0,8-6.92,13.84-13.99,13.84h-1.23c3.38-4.46,6.15-10.3,6.15-16.45-.15-8.46-5.69-14.61-14.46-14.61ZM623.88,30.19c-2.61,0-4.92-1.23-4.92-4.61,0-3.07,2.31-4.76,4.92-4.76,2.77,0,4.77,1.69,4.77,4.76,0,3.23-2,4.61-4.77,4.61Z"/><path d="M703.54,155.83h14.76v-25.68c0-14.3,3.23-22.76,3.23-35.06,0-19.23-11.38-29.68-32.14-29.68-17.07,0-30.14,8-30.14,23.53,0,3.54.46,6.77,1.84,11.07l14-2c-.77-2.77-1.08-4.92-1.08-7.54,0-6.46,4-11.53,15.53-11.53s16.92,6.61,16.92,16.15c0,13.99-2.92,21.68-2.92,36.76v23.99Z"/><path d="M606.36,82.17c-.16-8.77-6.61-16.3-17.38-16.3-12.61,0-17.53,8.15-17.69,16.3-.15,8.61,6.15,16.45,16.76,16.61-1.38,3.23-2.46,7.08-2.46,12.15v44.91h14.15v-.31l.15.31c7.23-14.76,19.68-21.38,27.99-22.76l-.15,6.77c-.15,11.22,5.54,17.99,16.92,17.99,10,0,15.84-6.46,15.84-17.38s-6.61-18.15-18.3-21.07v-25.99c0-9.84.92-16.15,2.31-23.07l-14.15-2.77c-2.15,7.23-2.92,12.15-2.92,26.14v25.68c-9.84,1.69-19.53,5.85-27.68,14.61v-23.99c0-13.69,6.77-19.22,6.61-27.83ZM594.52,84.32c-.46,2.92-2.77,3.84-5.54,3.84-3.23,0-6-1.38-6-5.69,0-3.54,2.77-5.69,6-5.69s5.84,2,5.69,5.69c0,.61,0,1.23-.15,1.84ZM641.57,132.92c4.46,1.39,6.46,4.15,6.77,7.84.15,3.54-1.08,5.38-3.54,5.38-2.61,0-3.23-2.15-3.23-5.69v-7.54Z"/><path d="M752.28,65.87c-12.61,0-17.53,8.15-17.69,16.3-.16,8.76,6.3,16.61,17.07,16.61h1.54c-1.08,3.54-1.85,8-1.85,13.38,0,4.61.16,7.69.46,10.61-8.15,2.77-13.69,8.92-13.69,18.46,0,10.15,5.84,16.61,16.15,16.61,11.07,0,16.3-6.61,16.3-16.3,0-2.77-.77-5.08-1.69-7.08,8.15.31,21.84,5.54,29.53,21.38h11.69v-61.98c0-9.84.92-16.61,2.31-23.53l-14.15-2.77c-2.15,7.23-2.92,12.61-2.92,26.6v36.91c-8.77-7.07-19.38-10.15-29.53-10.3-.31-2.31-.31-5.08-.31-8.61,0-14.61,4.3-21.07,4.15-29.99-.15-8.77-6.61-16.3-17.38-16.3ZM753.97,146.3c-2.31,0-3.38-1.69-3.38-4.61s1.38-5.38,4.46-6.92c1.08,2.15,2.15,4.3,2.15,6.92,0,2.77-1.07,4.61-3.23,4.61ZM757.96,83.86c-.46,3.07-2.77,4.3-5.69,4.3-3.23,0-6-1.38-6-5.69,0-3.54,2.77-5.69,6-5.69s5.84,2.15,5.69,5.69v1.39Z"/><path d="M513.79,82.17c-.15-8.77-6-16.3-16.76-16.3-12.61,0-17.53,8.15-17.68,16.3-.15,8.61,6.15,16.45,16.76,16.61-1.38,3.23-2.46,7.08-2.46,12.15v44.91h13.38l.15-2.61c1.54-17.22,18.3-33.68,28.45-42.9,1.85-1.7,3.69-3.23,5.23-4.77,1.08,3.38,1.38,7.38,1.38,13.53v36.76h14.15v-39.21c0-10.46-.62-16.3-4.15-21.22,5.54-5.54,8-9.54,8-15.84,0-8.46-6.46-14.3-16.15-14.3s-16.46,5.38-16.46,14.76c0,3.69,2,9.38,6.31,13.84-1.08,1.08-2.46,2.15-3.84,3.38-8.77,7.69-16.61,14.15-22.3,24.45v-10.61c0-13.69,6.15-17.23,6-28.91ZM502.57,84.32c-.46,2.92-2.77,3.84-5.54,3.84-3.23,0-6-1.38-6-5.69,0-3.54,2.77-5.69,6-5.69s5.84,2,5.69,5.69c0,.61,0,1.23-.15,1.84ZM544.09,75.71c2.77,0,3.69,1.69,3.54,3.84,0,2-1.08,3.69-4.31,6.77-2.15-2.62-3.08-4.77-3.08-6.77,0-2.15.92-3.84,3.84-3.84Z"/></svg>