<?xml version="1.0" encoding="UTF-8"?><svg id="Layer_1" xmlns="http://www.w3.org/2000/svg" viewBox="0 0 1063.6 118.87"><path d="M13.64,65.23h-5.08c-.62-4.55-.8-6.86-.8-10.07,0-10.61,9.98-17.38,23.53-17.38,14.79,0,24.33,6.24,24.33,18.98,0,5.35-1.6,10.96-1.6,20.32v13.1h-8.56v-12.12c0-9.27,1.43-14.44,1.43-21.3,0-7.31-5.62-11.14-15.51-11.14s-15.06,3.92-15.06,9.71c0,.89,0,1.78.09,2.67h9.8v7.22h-4.37v3.48c0,1.87-.45,3.48-1.16,4.9,5.61.09,9.09,4.19,9,8.91-.09,4.37-2.67,8.73-9.45,8.73-5.79,0-9.18-4.01-9.27-8.73-.09-4.63,2.67-8.02,2.67-13.28v-4.01ZM20.23,85.55c1.87,0,3.39-1.16,3.39-3.21,0-2.41-1.52-3.21-3.39-3.21-1.6,0-2.76.62-3.12,2.05v.27c-.09.27-.09.53-.09.89-.09,2.05,1.25,3.21,3.21,3.21Z"/><path d="M62.03,8.63c2.67,3.12,3.56,6.24,3.56,10.07,0,7.84-5.26,13.99-15.06,13.99-3.65,0-6.15-.36-9.71-1.07l-.62-3.65c2.14-.89,4.28-2.32,5.7-4.28-5.61,1.34-9-2.58-9-7.22,0-3.92,2.41-7.66,8.29-7.66,5.08,0,8.29,3.56,8.38,8.47,0,3.56-1.6,6.95-3.56,9.54h.71c4.1,0,8.11-3.39,8.11-8.02,0-4.01-1.43-5.88-2.58-7.04l5.79-3.12ZM47.95,16.66c0-1.78-1.16-2.76-2.76-2.76-1.52,0-2.85.98-2.85,2.76,0,1.96,1.34,2.67,2.85,2.67,1.6,0,2.76-.8,2.76-2.67Z"/><path d="M79.5,37.78c12.03,0,18.63,6.06,18.63,17.2,0,7.13-1.87,12.03-1.87,20.32v14.88h-8.56v-13.9c0-8.73,1.69-13.19,1.69-21.3,0-5.53-2.94-9.36-9.8-9.36s-9,2.94-9,6.68c0,1.52.18,2.76.62,4.37l-8.11,1.16c-.8-2.5-1.07-4.37-1.07-6.42,0-9,7.58-13.64,17.47-13.64Z"/><path d="M109.26,39.92h8.2v25.49c0,3.12-.71,5.44-1.6,7.4,6.24,0,9.63,4.19,9.54,9.27-.09,4.72-2.58,9.09-9.89,9.09-6.24,0-9.63-4.01-9.71-9.09-.09-4.99,3.48-8.2,3.48-16.13v-26.03ZM115.5,85.19c1.87,0,3.56-1.25,3.56-3.3,0-2.5-1.69-3.3-3.56-3.3-1.69,0-3.12.71-3.39,2.5v.8c-.09,2.05,1.43,3.3,3.39,3.3Z"/><path d="M130.56,81.72c0-5.53,3.21-9.09,7.93-10.7-.18-1.69-.27-3.48-.27-6.15,0-3.12.45-5.7,1.07-7.75h-.89c-6.24,0-9.98-4.55-9.89-9.63.09-4.72,2.94-9.45,10.25-9.45,6.24,0,9.98,4.37,10.07,9.45.09,5.17-2.41,8.91-2.41,17.38,0,2.05,0,3.65.18,4.99,5.88.09,12.03,1.87,17.11,5.97v-21.39c0-8.11.45-11.23,1.69-15.42l8.2,1.6c-.8,4.01-1.34,7.93-1.34,13.64v35.92h-6.77c-4.46-9.18-12.39-12.21-17.11-12.39.53,1.16.98,2.5.98,4.1,0,5.61-3.03,9.45-9.45,9.45-5.97,0-9.36-3.74-9.36-9.63ZM138.76,50.97c1.69,0,3.03-.71,3.3-2.5v-.8c.09-2.05-1.34-3.3-3.3-3.3s-3.48,1.25-3.48,3.3c0,2.5,1.6,3.3,3.48,3.3ZM139.74,84.66c1.25,0,1.87-1.07,1.87-2.67,0-1.51-.62-2.76-1.25-4.01-1.78.89-2.58,2.32-2.58,4.01s.62,2.67,1.96,2.67Z"/><path d="M179.23,25.39c0,4.46-3.12,9.27-3.39,10.07v.09c-5.26-4.19-21.57-9.36-29.95-9.36,2.76-9.89,7.84-14.08,16.22-14.44.09-2.67.45-5.53.89-7.31l7.13,1.43c-.36,1.87-.8,3.92-.89,6.68.89.18,1.69.53,2.41.89.09-2.85.45-4.99.98-7.04l7.13,1.6c-.45,2.05-.89,4.46-.89,7.58,0,3.48.36,5.53.36,9.8ZM155.07,21.38c5.61.8,12.3,2.58,17.02,4.99.09-.53.18-1.07.18-1.6,0-4.1-2.85-6.95-9.45-6.95-3.48,0-5.7.89-7.75,3.56Z"/><path d="M182.7,55.43c-.71-1.96-.89-3.39-.89-5.53,0-7.49,7.58-12.12,20.14-12.12,14.71,0,21.3,6.06,21.3,16.58,0,4.46-1.96,10.52-1.96,14.88,0,3.03,1.25,6.33,1.25,9.89,0,7.75-4.81,11.23-13.55,11.23h-13.28c-8.47,0-12.03-2.58-12.03-8.11,0-2.32.36-3.83.36-6.6,0-2.5-1.07-5.7-1.07-9.09,0-5.44,3.48-9,9.27-9,6.77,0,9.36,4.37,9.45,8.73.09,4.72-3.39,8.91-9.09,8.91h-.53c.18.62.27,1.34.27,2.14,0,1.25-.18,2.32-.18,3.21,0,1.07.8,1.78,2.5,1.78h14.17c3.48,0,5.08-1.25,5.08-3.21,0-3.74-1.16-6.6-1.16-10.07,0-4.46,1.78-9.18,1.78-14.71,0-4.9-3.3-8.73-12.48-8.73s-11.68,3.03-11.68,5.44c0,.98.09,1.78.36,2.85l-8.02,1.52ZM189.03,66.57c.09,2.32,1.34,3.12,3.21,3.12s3.39-.8,3.39-3.21c0-2.05-1.52-3.21-3.39-3.21s-3.3,1.16-3.21,3.21v.09Z"/><path d="M267.64,61.49v6.51c0,5.97,1.07,9.62,1.07,14.17,0,5.62-2.94,9.09-9.98,9.09-2.32,0-4.01,0-7.31-.36v-.09l-.09.09c-2.85-13.73-8.29-22.28-15.15-27.9-4.37-3.56-7.22-4.9-7.22-4.9l4.28-6.86c2.85,1.43,5.53,3.3,7.75,5.08,8.47,6.77,13.9,14.79,16.76,26.74,1.96-.09,2.5-.89,2.5-3.12,0-3.12-1.07-5.44-1.07-11.94l.09-6.33c0-2.41.27-4.46.71-5.97h-.53c-5.7,0-9.18-4.19-9.09-8.91.09-4.37,2.67-8.73,9.45-8.73,5.79,0,9.27,3.56,9.27,9,0,6.06-1.43,8.38-1.43,14.44ZM263,46.96c.09-2.05-1.25-3.21-3.21-3.21s-3.39,1.16-3.39,3.21c0,2.41,1.52,3.21,3.39,3.21s3.3-.89,3.21-3.21Z"/><path d="M291.61,70.4c3.3-5.97,7.84-9.71,12.92-14.17.8-.71,1.6-1.34,2.23-1.96-2.5-2.58-3.65-5.88-3.65-8.02,0-5.44,3.74-8.56,9.54-8.56s9.36,3.39,9.36,8.29c0,3.65-1.43,5.97-4.63,9.18,2.05,2.85,2.41,6.24,2.41,12.3v22.73h-8.2v-21.3c0-3.56-.18-5.88-.8-7.84-.89.89-1.96,1.78-3.03,2.76-5.88,5.35-15.6,14.88-16.49,24.87l-.09,1.51h-7.75v-26.02c0-2.94.62-5.17,1.43-7.04-6.15-.09-9.8-4.63-9.71-9.63.09-4.72,2.94-9.45,10.25-9.45,6.24,0,9.63,4.37,9.71,9.45.09,6.77-3.48,8.82-3.48,16.76v6.15ZM285.37,50.97c1.6,0,2.94-.53,3.21-2.23.09-.36.09-.71.09-1.07.09-2.14-1.34-3.3-3.3-3.3s-3.48,1.25-3.48,3.3c0,2.5,1.6,3.3,3.48,3.3ZM312.2,49.9c1.87-1.78,2.5-2.76,2.5-3.92.09-1.25-.45-2.23-2.05-2.23-1.69,0-2.23.98-2.23,2.23,0,1.16.53,2.41,1.78,3.92Z"/><path d="M343.75,77.53c4.72-5.08,10.34-7.49,16.04-8.47v-14.88c0-8.11.45-10.96,1.69-15.15l8.2,1.6c-.8,4.01-1.34,7.66-1.34,13.37v15.06c6.77,1.69,10.61,5.79,10.61,12.21s-3.39,10.07-9.18,10.07c-6.6,0-9.89-3.92-9.8-10.43l.09-3.92c-4.81.8-12.03,4.64-16.22,13.19l-.09-.18v.18h-8.2v-26.02c0-2.94.62-5.17,1.43-7.04-6.15-.09-9.8-4.63-9.71-9.63.09-4.72,2.94-9.45,10.25-9.45,6.24,0,9.98,4.37,10.07,9.45.09,4.99-3.83,8.2-3.83,16.13v13.9ZM337.51,50.97c1.6,0,2.94-.53,3.21-2.23.09-.36.09-.71.09-1.07.09-2.14-1.34-3.3-3.3-3.3s-3.48,1.25-3.48,3.3c0,2.5,1.6,3.3,3.48,3.3ZM369.86,84.57c1.43,0,2.14-1.07,2.05-3.12-.18-2.14-1.34-3.74-3.92-4.55v4.37c0,2.05.36,3.3,1.87,3.3Z"/><path d="M374.59,6.67c2.67,3.12,3.57,6.24,3.57,10.07,0,7.84-5.26,13.99-15.06,13.99-3.65,0-6.15-.36-9.71-1.07l-.62-3.65c2.14-.89,4.28-2.32,5.7-4.28-5.61,1.34-9-2.58-9-7.22,0-3.92,2.41-7.66,8.29-7.66,5.08,0,8.29,3.56,8.38,8.47,0,3.57-1.6,6.95-3.56,9.54h.71c4.1,0,8.11-3.39,8.11-8.02,0-4.01-1.43-5.88-2.58-7.04l5.79-3.12ZM360.5,14.7c0-1.78-1.16-2.76-2.76-2.76-1.52,0-2.85.98-2.85,2.76,0,1.96,1.34,2.67,2.85,2.67,1.6,0,2.76-.8,2.76-2.67Z"/><path d="M394.55,37.78c12.03,0,18.63,6.06,18.63,17.2,0,7.13-1.87,12.03-1.87,20.32v14.88h-8.56v-13.9c0-8.73,1.69-13.19,1.69-21.3,0-5.53-2.94-9.36-9.8-9.36s-9,2.94-9,6.68c0,1.52.18,2.76.62,4.37l-8.11,1.16c-.8-2.5-1.07-4.37-1.07-6.42,0-9,7.58-13.64,17.47-13.64Z"/><path d="M421.64,81.72c0-5.53,3.21-9.09,7.93-10.7-.18-1.69-.27-3.48-.27-6.15,0-3.12.45-5.7,1.07-7.75h-.89c-6.24,0-9.98-4.55-9.89-9.63.09-4.72,2.94-9.45,10.25-9.45,6.24,0,9.98,4.37,10.07,9.45.09,5.17-2.41,8.91-2.41,17.38,0,2.05,0,3.65.18,4.99,5.88.09,12.03,1.87,17.11,5.97v-21.39c0-8.11.45-11.23,1.69-15.42l8.2,1.6c-.8,4.01-1.34,7.93-1.34,13.64v35.92h-6.77c-4.46-9.18-12.39-12.21-17.11-12.39.53,1.16.98,2.5.98,4.1,0,5.61-3.03,9.45-9.45,9.45-5.97,0-9.36-3.74-9.36-9.63ZM429.84,50.97c1.69,0,3.03-.71,3.3-2.5v-.8c.09-2.05-1.34-3.3-3.3-3.3s-3.48,1.25-3.48,3.3c0,2.5,1.6,3.3,3.48,3.3ZM430.82,84.66c1.25,0,1.87-1.07,1.87-2.67,0-1.51-.62-2.76-1.25-4.01-1.78.89-2.58,2.32-2.58,4.01s.62,2.67,1.96,2.67Z"/><path d="M470.31,25.39c0,4.46-3.12,9.27-3.39,10.07v.09c-5.26-4.19-21.57-9.36-29.95-9.36,2.85-10.25,8.29-14.44,17.2-14.44,3.21,0,6.15.53,8.56,1.69.09-2.85.45-4.99.98-7.04l7.13,1.6c-.45,2.05-.89,4.46-.89,7.58,0,3.48.36,5.53.36,9.8ZM446.15,21.38c5.61.8,12.3,2.58,17.02,4.99.09-.53.18-1.07.18-1.6,0-4.1-2.85-6.95-9.45-6.95-3.48,0-5.7.89-7.75,3.56Z"/><path d="M473.78,55.43c-.71-1.96-.89-3.39-.89-5.53,0-7.49,7.58-12.12,20.14-12.12,14.71,0,21.3,6.06,21.3,16.58,0,4.46-1.96,10.52-1.96,14.88,0,3.03,1.25,6.33,1.25,9.89,0,7.75-4.81,11.23-13.55,11.23h-13.28c-8.47,0-12.03-2.58-12.03-8.11,0-2.32.36-3.83.36-6.6,0-2.5-1.07-5.7-1.07-9.09,0-5.44,3.48-9,9.27-9,6.77,0,9.36,4.37,9.45,8.73.09,4.72-3.39,8.91-9.09,8.91h-.53c.18.62.27,1.34.27,2.14,0,1.25-.18,2.32-.18,3.21,0,1.07.8,1.78,2.5,1.78h14.17c3.48,0,5.08-1.25,5.08-3.21,0-3.74-1.16-6.6-1.16-10.07,0-4.46,1.78-9.18,1.78-14.71,0-4.9-3.3-8.73-12.48-8.73s-11.68,3.03-11.68,5.44c0,.98.09,1.78.36,2.85l-8.02,1.52ZM480.11,66.57c.09,2.32,1.34,3.12,3.21,3.12s3.39-.8,3.39-3.21c0-2.05-1.52-3.21-3.39-3.21s-3.3,1.16-3.21,3.21v.09Z"/><path d="M560.41,54.27v11.41c0,6.6,1.25,9.71,1.25,12.39,0,8.65-4.99,12.3-13.72,12.3h-10.79c-10.34,0-16.31-4.99-16.31-14.44,0-5.17,2.05-10.52,8.82-13.28-4.81-2.41-7.31-6.51-7.31-12.03,0-6.86,5.44-12.57,13.1-12.57,6.24.09,9.8,3.12,9.8,8.2,0,5.88-3.74,8.29-7.67,8.29-4.37,0-7.84-3.12-7.31-7.75-.71.98-1.07,2.32-1.07,3.57,0,4.1,1.78,6.24,5.7,7.93,2.23.98,4.28,1.43,6.24,1.52l-.09,6.42c-10.61.71-12.57,5.08-12.57,9.45,0,4.63,2.94,6.6,9.18,6.6h10.07c3.48,0,5.26-1.43,5.26-4.19s-1.16-5.53-1.16-12.57v-11.05c0-8.11.45-11.23,1.69-15.42l8.2,1.6c-.8,4.01-1.34,7.93-1.34,13.64ZM537.41,43.48c-1.87,0-2.67,1.16-2.67,2.76,0,1.52.71,2.85,2.67,2.85,1.78,0,2.76-1.34,2.76-2.85,0-1.6-.98-2.76-2.76-2.76Z"/><path d="M559.52,95.98v9.8c0,7.4-1.16,8.64-8.38,8.64h-8.29l.18-6.95c-.62.27-1.34.27-1.87.27-3.21,0-6.42-2.41-6.42-5.97s2.67-6.6,7.4-6.6,7.22,2.76,7.13,7.22l-.09,5.79h1.25c1.69,0,2.14-.8,2.14-2.94v-9.27h6.95ZM543.83,101.5c0-1.07-.62-1.87-1.87-1.87-1.34,0-1.96.8-1.96,1.87s.62,1.96,1.87,1.96c1.34,0,1.96-.89,1.96-1.96Z"/><path d="M565.84,29.13h-8.38c0-10.78.36-14.88,1.43-19.25l8.38,1.25c-.98,4.81-1.43,9.63-1.43,18Z"/><path d="M610.32,54.36c0,5.88-1.87,8.11-1.87,14.53,0,4.19,1.07,8.73,1.07,13.28,0,5.62-3.03,9.09-10.34,9.09-3.57,0-5.44-.27-7.49-.71,0-5.44-1.87-13.19-4.63-18-1.43,3.12-4.55,4.72-8.02,4.63-4.37-.09-8.73-2.67-8.73-9.45,0-6.24,3.56-9.18,9.63-9.27,11.05,0,16.84,13.46,18.89,24.69,1.69-.18,2.14-.98,2.14-3.03,0-3.3-1.07-6.51-1.07-11.23,0-5.35,1.69-9,1.69-14.53,0-4.9-3.3-8.73-12.48-8.73s-11.68,2.94-11.68,5.7c0,1.52.18,2.58.54,4.19l-8.02,1.34c-.8-2.5-1.07-4.37-1.07-6.42,0-8.02,7.58-12.66,20.14-12.66,14.71,0,21.3,6.06,21.3,16.58ZM579.3,71.2c2.23,0,3.12-1.52,3.12-3.3,0-1.96-.89-3.21-3.12-3.21-2.05,0-3.12,1.25-3.12,3.21,0,1.78,1.16,3.3,3.12,3.3Z"/><path d="M652.12,62.29c.09,3.83-.71,6.77-.71,8.73,0,4.37,1.34,6.33,1.34,11.5,0,4.72-3.48,8.73-9.27,8.73-6.77,0-9.36-4.37-9.45-8.73-.09-4.72,3.39-8.91,9.09-8.91h.45c-.27-.89-.45-1.96-.45-3.03,0-2.05.45-4.46.45-7.4,0-4.37-4.01-6.86-10.7-7.04-4.37-.09-8.73.09-14.08,1.69-1.16-3.3-1.69-6.68-1.69-9.98,0-7.67,5.08-12.83,12.83-12.83,8.91,0,14.08,6.86,20.05,6.95,1.6,0,2.58-.71,2.58-2.41,0-1.6-1.25-2.5-2.67-2.5-1.16,0-1.87,0-2.58.09v-6.77c.53-.09,1.07-.09,2.14-.09,6.15.09,10.87,2.58,10.87,9.54,0,6.24-3.74,9.89-9.98,9.89-8.82,0-13.9-6.6-20.41-6.6-2.94,0-4.46,2.23-4.46,4.72,0,.53,0,.89.09,1.34,2.32-.36,4.72-.45,7.4-.45,11.59,0,18.98,5.35,19.16,13.55ZM643.47,85.55c1.96,0,3.3-1.16,3.21-3.21v-.18c-.09-2.23-1.43-3.03-3.21-3.03-1.87,0-3.39.8-3.39,3.21,0,2.05,1.52,3.21,3.39,3.21Z"/><path d="M662.1,29.04v.09c-5.26-4.19-20.68-9.36-29.05-9.36,2.85-10.25,8.29-14.44,16.76-14.44,8.91,0,15.69,4.72,15.69,13.64,0,4.46-3.12,9.27-3.39,10.07ZM642.22,15.05c5.44.71,11.59,2.5,16.13,4.81.09-.45.18-.98.18-1.52,0-4.1-2.85-6.95-9-6.95-3.12,0-5.35.89-7.31,3.65Z"/><path d="M698.82,61.49v6.51c0,5.97,1.07,9.62,1.07,14.17,0,5.62-2.94,9.09-9.98,9.09-2.32,0-4.01,0-7.31-.36v-.09l-.09.09c-2.85-13.73-8.29-22.28-15.15-27.9-4.37-3.56-7.22-4.9-7.22-4.9l4.28-6.86c2.85,1.43,5.53,3.3,7.75,5.08,8.47,6.77,13.9,14.79,16.76,26.74,1.96-.09,2.5-.89,2.5-3.12,0-3.12-1.07-5.44-1.07-11.94l.09-6.33c0-2.41.27-4.46.71-5.97h-.54c-5.7,0-9.18-4.19-9.09-8.91.09-4.37,2.67-8.73,9.45-8.73,5.79,0,9.27,3.56,9.27,9,0,6.06-1.43,8.38-1.43,14.44ZM694.18,46.96c.09-2.05-1.25-3.21-3.21-3.21s-3.39,1.16-3.39,3.21c0,2.41,1.52,3.21,3.39,3.21s3.3-.89,3.21-3.21Z"/><path d="M732.15,55.43c-.71-1.96-.89-3.39-.89-5.53,0-7.49,7.58-12.12,20.14-12.12,14.71,0,21.3,6.06,21.3,16.58,0,4.46-1.96,10.52-1.96,14.88,0,3.03,1.25,6.33,1.25,9.89,0,7.75-4.81,11.23-13.55,11.23h-13.28c-8.47,0-12.03-2.58-12.03-8.11,0-2.32.36-3.83.36-6.6,0-2.5-1.07-5.7-1.07-9.09,0-5.44,3.48-9,9.27-9,6.77,0,9.36,4.37,9.45,8.73.09,4.72-3.39,8.91-9.09,8.91h-.53c.18.62.27,1.34.27,2.14,0,1.25-.18,2.32-.18,3.21,0,1.07.8,1.78,2.5,1.78h14.17c3.48,0,5.08-1.25,5.08-3.21,0-3.74-1.16-6.6-1.16-10.07,0-4.46,1.78-9.18,1.78-14.71,0-4.9-3.3-8.73-12.48-8.73s-11.68,3.03-11.68,5.44c0,.98.09,1.78.36,2.85l-8.02,1.52ZM738.48,66.57c.09,2.32,1.34,3.12,3.21,3.12s3.39-.8,3.39-3.21c0-2.05-1.52-3.21-3.39-3.21s-3.3,1.16-3.21,3.21v.09Z"/><path d="M818.78,54.27v11.41c0,6.6,1.25,9.71,1.25,12.39,0,8.65-4.99,12.3-13.72,12.3h-10.79c-10.34,0-16.31-4.99-16.31-14.44,0-5.17,2.05-10.52,8.82-13.28-4.81-2.41-7.31-6.51-7.31-12.03,0-6.86,5.44-12.57,13.1-12.57,6.24.09,9.8,3.12,9.8,8.2,0,5.88-3.74,8.29-7.67,8.29-4.37,0-7.84-3.12-7.31-7.75-.71.98-1.07,2.32-1.07,3.57,0,4.1,1.78,6.24,5.7,7.93,2.23.98,4.28,1.43,6.24,1.52l-.09,6.42c-10.61.71-12.57,5.08-12.57,9.45,0,4.63,2.94,6.6,9.18,6.6h10.07c3.48,0,5.26-1.43,5.26-4.19s-1.16-5.53-1.16-12.57v-11.05c0-8.11.45-11.23,1.69-15.42l8.2,1.6c-.8,4.01-1.34,7.93-1.34,13.64ZM795.78,43.48c-1.87,0-2.67,1.16-2.67,2.76,0,1.52.71,2.85,2.67,2.85,1.78,0,2.76-1.34,2.76-2.85,0-1.6-.98-2.76-2.76-2.76Z"/><path d="M843.64,37.78c12.03,0,18.63,6.06,18.63,17.2,0,7.13-1.87,12.03-1.87,20.32v14.88h-8.56v-13.9c0-8.73,1.69-13.19,1.69-21.3,0-5.53-2.94-9.36-9.8-9.36s-9,2.94-9,6.68c0,1.52.18,2.76.62,4.37l-8.11,1.16c-.8-2.5-1.07-4.37-1.07-6.42,0-9,7.58-13.64,17.47-13.64Z"/><path d="M893.55,37.78c14.44,0,23.98,6.24,23.98,18.98,0,5.35-1.6,10.96-1.6,20.32v13.1h-8.56v-12.12c0-9.27,1.43-14.44,1.43-21.3,0-7.31-5.62-11.14-15.15-11.14s-14.71,3.92-14.71,9.71c0,1.07,0,2.05.09,3.03h9.8v7.22h-4.19l.09,24.6h-8.56l-.09-24.6h-4.9c-.54-5.35-.8-7.66-.8-10.61,0-10.43,10.25-17.2,23.17-17.2Z"/><path d="M929.47,50.08c0-10.87,6.24-13.1,6.24-22.37,0-4.1-2.5-6.68-6.24-6.68-2.23,0-4.01.45-5.26,1.52,4.72-.62,8.11,2.94,8.11,7.31,0,3.92-2.41,7.67-7.84,7.67-5.79,0-8.56-3.56-8.65-9.8,0-8.56,5.7-13.99,13.99-13.99,9.54,0,14.17,5.62,14.17,13.73,0,10.25-6.33,12.48-6.33,23.26v14.71c0,3.12-.71,5.44-1.6,7.4,6.24,0,9.63,4.19,9.54,9.27-.09,4.72-2.58,9.09-9.89,9.09-6.24,0-9.62-4.01-9.71-9.09-.09-4.99,3.48-8.2,3.48-16.13v-15.86ZM924.03,32.43c1.51,0,2.85-.98,2.85-2.76,0-1.96-1.34-2.67-2.85-2.67-1.6,0-2.76.8-2.76,2.67s1.16,2.76,2.76,2.76ZM935.71,85.19c1.87,0,3.57-1.25,3.57-3.3,0-2.5-1.69-3.3-3.57-3.3-1.69,0-3.12.71-3.39,2.5v.8c-.09,2.05,1.43,3.3,3.39,3.3Z"/><path d="M964.67,70.4c3.3-5.97,7.84-9.71,12.92-14.17.8-.71,1.6-1.34,2.23-1.96-2.5-2.58-3.65-5.88-3.65-8.02,0-5.44,3.74-8.56,9.54-8.56s9.36,3.39,9.36,8.29c0,3.65-1.43,5.97-4.63,9.18,2.05,2.85,2.41,6.24,2.41,12.3v22.73h-8.2v-21.3c0-3.56-.18-5.88-.8-7.84-.89.89-1.96,1.78-3.03,2.76-5.88,5.35-15.6,14.88-16.49,24.87l-.09,1.51h-7.75v-26.02c0-2.94.62-5.17,1.43-7.04-6.15-.09-9.8-4.63-9.71-9.63.09-4.72,2.94-9.45,10.25-9.45,6.24,0,9.63,4.37,9.71,9.45.09,6.77-3.48,8.82-3.48,16.76v6.15ZM958.43,50.97c1.6,0,2.94-.53,3.21-2.23.09-.36.09-.71.09-1.07.09-2.14-1.34-3.3-3.3-3.3s-3.48,1.25-3.48,3.3c0,2.5,1.6,3.3,3.48,3.3ZM985.26,49.9c1.87-1.78,2.5-2.76,2.5-3.92.09-1.25-.45-2.23-2.05-2.23-1.69,0-2.23.98-2.23,2.23,0,1.16.53,2.41,1.78,3.92Z"/><path d="M1000.14,8.63c2.67,3.12,3.56,6.24,3.56,10.07,0,7.84-5.26,13.99-15.06,13.99-3.65,0-6.15-.36-9.71-1.07l-.62-3.65c2.14-.89,4.28-2.32,5.7-4.28-5.62,1.34-9-2.58-9-7.22,0-3.92,2.41-7.66,8.29-7.66,5.08,0,8.29,3.56,8.38,8.47,0,3.56-1.6,6.95-3.57,9.54h.71c4.1,0,8.11-3.39,8.11-8.02,0-4.01-1.43-5.88-2.58-7.04l5.79-3.12ZM986.06,16.66c0-1.78-1.16-2.76-2.76-2.76-1.52,0-2.85.98-2.85,2.76,0,1.96,1.34,2.67,2.85,2.67,1.6,0,2.76-.8,2.76-2.67Z"/><path d="M1015.03,86.35c0,3.74-2.58,4.9-5.88,4.9-3.03,0-5.62-1.16-5.62-4.9,0-4.28,2.58-5.35,5.62-5.35,3.3,0,5.88,1.07,5.88,5.35Z"/><path d="M1035.44,86.35c0,3.74-2.58,4.9-5.88,4.9-3.03,0-5.62-1.16-5.62-4.9,0-4.28,2.58-5.35,5.62-5.35,3.3,0,5.88,1.07,5.88,5.35Z"/><path d="M1055.85,86.35c0,3.74-2.58,4.9-5.88,4.9-3.03,0-5.62-1.16-5.62-4.9,0-4.28,2.58-5.35,5.62-5.35,3.3,0,5.88,1.07,5.88,5.35Z"/></svg>